<?xml version="1.0" encoding="utf-8"?>
<!-- Generator: Adobe Illustrator 23.0.2, SVG Export Plug-In . SVG Version: 6.00 Build 0)  -->
<svg version="1.1" id="Layer_1" xmlns="http://www.w3.org/2000/svg" xmlns:xlink="http://www.w3.org/1999/xlink" x="0px" y="0px"
	 viewBox="0 0 1366 768" preserveAspectRatio="none" style="enable-background:new 0 0 1366 768;" xml:space="preserve">
<style type="text/css">
	.st0{fill-rule:evenodd;clip-rule:evenodd;fill:#702f2f;}
</style>
<polygon class="st0" points="122.48,6.87 174.59,10.82 227.4,10.94 295.49,0 365.39,9.76 452.2,23.52 577.25,3.37 683.64,13.71 
	815.97,31.86 940.5,7.04 1090.88,5.35 1239.69,0.78 1323.89,2.46 1366,107.84 1353.03,167.97 1333.6,232.86 1344.94,363.83 
	1340.09,451.89 1306.09,529.55 1335.23,606.03 1330.37,673.24 1278.55,720.74 712.07,769.43 371.84,748.56 196.32,733.5 
	26.97,749.72 -0.57,530.69 26.97,356.87 39.92,83.86 "/>
</svg>
