<?xml version="1.0" encoding="utf-8"?>
<!-- Generator: Adobe Illustrator 23.0.2, SVG Export Plug-In . SVG Version: 6.00 Build 0)  -->
<svg version="1.1" id="Layer_1" xmlns="http://www.w3.org/2000/svg" xmlns:xlink="http://www.w3.org/1999/xlink" x="0px" y="0px"
	 viewBox="0 0 14400 14400" style="enable-background:new 0 0 14400 14400;" xml:space="preserve">
<style type="text/css">
	.st0{fill-rule:evenodd;clip-rule:evenodd;fill:#262626;}
</style>
<path class="st0" d="M7245.76,7185.85l20.61-0.34l32.01-3.28l2.3,0.51l4.32,12.07l-6.08,20.52l0.32,19.31l2.46,10.45l0.15,9.38
	l-32.62-6.09l-19.67,1.43l-1.12-12.67c0,0,2.32,1.62,2.59-9.42c0.28-11.04,4.71,7.65,0.32-8.56s-5.26-13.43-5.26-13.43l-0.37-22.62
	L7245.76,7185.85z"/>
<path class="st0" d="M7133.43,7000.42l-19.46,0.32l-9.39,0.15l-16.36,7.99l0.15,8.83l0.23,13.79l0.14,8.55l0.19,11.86l0.16,9.93
	l7.41,4.85l8.13-6.76l10.28-1.82l14.89,0.31l10.98-0.73l-0.23-13.79c0,0-3.88-13.18-3.07-19.82c0.81-6.64-0.22-13.24-0.22-13.24
	L7133.43,7000.42z"/>
<polygon class="st0" points="7144.09,7062.3 7144.28,7073.89 7140.88,7089.95 7142.14,7111.45 7145.15,7126.85 7163.46,7126.55 
	7176.75,7126.34 7187.74,7126.16 7192.86,7103.45 7192.2,7090.76 7192.01,7079.18 7191.39,7069.25 7183.02,7061.67 7170.65,7061.87 
	7160.12,7062.04 "/>
<polygon class="st0" points="7190.49,7126.11 7200.56,7125.95 7206.97,7125.84 7221.63,7125.6 7234.45,7125.39 7248.24,7127.92 
	7256.97,7129.99 7259.9,7140.98 7259.22,7155.34 7258.54,7169.69 7260.54,7180.15 7260.67,7187.87 7236.88,7189.92 7213.92,7186.43 
	7200.14,7183.9 7191.34,7177.97 7190.94,7153.7 7190.63,7134.94 "/>
<path class="st0" d="M7187.79,7185.2l-19.46,0.32l-9.39,0.15l-16.36,7.99l0.14,8.83l0.23,13.79l0.14,8.55l0.19,11.86l0.16,9.93
	l7.41,4.85l8.14-6.76l10.28-1.82l14.89,0.31l10.98-0.73l-0.23-13.79c0,0-3.88-13.18-3.07-19.82c0.81-6.64-0.22-13.24-0.22-13.24
	L7187.79,7185.2z"/>
<path class="st0" d="M7141.48,7126.91l-1.97,19.35l-0.08,23.18l0.68,13.79l2.46,10.44l-6.37,2.86l-15.55,1.36l-11.93-0.91
	l-8.28-2.07l-4.21-5.45l4.22-22.14c0,0-1.13-13.23-1.24-19.85s-0.73-16.54-0.73-16.54l0.4-3.32l14.2-0.23L7141.48,7126.91z"/>
<polygon class="st0" points="7260.67,7062.72 7270.75,7062.55 7277.16,7062.45 7291.81,7062.21 7304.64,7062 7318.42,7064.53 
	7327.16,7066.59 7330.09,7077.58 7329.41,7091.94 7328.73,7106.3 7330.73,7116.75 7330.86,7124.48 7307.07,7126.52 7284.11,7123.04 
	7270.32,7120.5 7261.52,7114.58 7261.12,7090.3 7260.82,7071.54 "/>
<polygon class="st0" points="7094.38,7243.85 7094.57,7255.44 7091.17,7271.5 7092.44,7293 7095.44,7308.4 7113.76,7308.1 
	7127.04,7307.88 7138.03,7307.7 7143.16,7284.99 7142.49,7272.31 7142.3,7260.73 7141.68,7250.8 7133.31,7243.21 7120.95,7243.42 
	7110.41,7243.59 "/>
<polygon class="st0" points="7140.78,7307.66 7150.86,7307.49 7157.27,7307.39 7171.92,7307.15 7184.75,7306.94 7198.53,7309.47 
	7207.27,7311.54 7210.2,7322.52 7209.52,7336.88 7208.84,7351.24 7210.84,7361.7 7210.97,7369.42 7187.18,7371.46 7164.22,7367.98 
	7150.43,7365.45 7141.63,7359.52 7141.23,7335.24 7140.93,7316.49 "/>
</svg>
