<?xml version="1.0" encoding="utf-8"?>
<!-- Generator: Adobe Illustrator 23.0.2, SVG Export Plug-In . SVG Version: 6.00 Build 0)  -->
<svg version="1.1" id="Layer_1" xmlns="http://www.w3.org/2000/svg" xmlns:xlink="http://www.w3.org/1999/xlink" x="0px" y="0px"
	 viewBox="0 0 14400 14400" style="enable-background:new 0 0 14400 14400;" xml:space="preserve">
<style type="text/css">
	.st0{fill-rule:evenodd;clip-rule:evenodd;fill:#DEA66A;}
	.st1{fill-rule:evenodd;clip-rule:evenodd;fill:#C8935A;}
	.st2{fill-rule:evenodd;clip-rule:evenodd;fill:#FFFB66;}
	.st3{fill:#DEA66A;}
</style>
<g>
	<path class="st0" d="M7046.22,7157.77l69.33-33.23l105.3-54.3l45.3-8.7l52.82-29.12l26.44,22.98l20.62,12.42l-21.2,34.23
		l-19.61,37.1c0,0-38.2,29.83-44.73,34.68c-6.55,4.85-127.06,98.85-127.06,98.85l-35.21,51.97l-58.95,47.53
		c0,0,0.64,1.09-10.72-10.37c-3.42-23.26-9.84-61.33-10.02-65.85c-0.29-7.31-2.61-59.63-2-74.03
		C7037.14,7207.56,7046.22,7157.77,7046.22,7157.77z"/>
	<path class="st1" d="M7342.43,7054.55l-21.83,30.82l-25.27,42.74l-36.53,31.41l-42.72,36.07l-40.27,35.97l-38.02,30.97
		l-11.03,18.61l-28.65,32.08l-26.73,31.01l-18.68,11.55l-5.66,5.62l11.26,11.33c0,0,34.76-24.94,37.16-28
		c2.4-3.06,55.62-54.16,55.48-60.64c-0.14-6.48,12.52-18.17,12.52-18.17s33.16-16.83,36.49-20.12s36.78-29.06,44.21-35.65
		c7.43-6.59,58.41-48.49,58.41-48.49s18.26-14.84,20.4-17.51c2.13-2.68,17.98-22.05,19.57-25.82c1.59-3.77,23.02-37.74,23.02-37.74
		l1.85-14.8L7342.43,7054.55z"/>
	<path class="st2" d="M6988.37,7193.36l52.35-64.34l50.29-21.82l35.32-38.69l66.8-7.28l56.59-48.94l30.5,14.22l37.58-8.9
		l25.12-21.24l32.21,14.75l35.93,11.22l-29.63,20.77l3.64,24.59l36.13,24.42l-7.71,21.99l-36.39-9.49l-7.23-28.52l-27.02,7.51
		l-19.22,16.51l5.98,26.25l-2.71,31.05c0,0-18.76-8.82-20.23-11.01c-1.47-2.19-19.58,0.45-19.58,0.45l-16.56,23.91l4.1,22.86
		l5.39,35.46l-59.44,28.34l-60.12,6.55l-52.46,23.02l-21.5,35.5c0,0,12.51,20.79,17.01,23.14c4.49,2.34,39.84,20.88,39.84,20.88
		l-2.12,21.85l-44.56,14.23c0,0-6.14-18.69-6.44-24.53s-7.69-26.8-7.69-26.8l-15.26-12.27l-15.32,26.17l-15.31,26.17l-27.51-1.08
		l-6.66-48.05l-23.71-32.74l9.58-18.59l14.69-27.31c0,0-12.94-5.8-15.1-9.41c-2.16-3.62-3.05-33.79-3.05-33.79l8.66-15.12
		L6988.37,7193.36z"/>
	<path class="st3" d="M7016.83,7122.63l69.33-33.23l105.3-54.3l45.3-8.7l52.82-29.12l26.44,22.98l20.62,12.42l-21.2,34.23
		l-19.61,37.1c0,0-38.2,29.83-44.73,34.68c-6.54,4.85-127.06,98.86-127.06,98.86l-35.21,51.97l-58.95,47.53
		c0,0,0.64,1.09-10.72-10.37c-3.42-23.26-9.84-61.33-10.02-65.85c-0.29-7.31-2.61-59.63-2-74.03
		C7007.75,7172.43,7016.83,7122.63,7016.83,7122.63z"/>
	<path class="st1" d="M7313.04,7019.42l-21.82,30.82l-25.27,42.74l-36.52,31.41l-42.72,36.07l-40.27,35.97l-38.02,30.97
		l-11.03,18.61l-28.65,32.08l-26.73,31.01l-18.68,11.54l-5.66,5.62l11.26,11.33c0,0,34.76-24.94,37.16-28
		c2.4-3.06,55.62-54.16,55.48-60.64c-0.15-6.48,12.52-18.17,12.52-18.17s33.16-16.83,36.49-20.12c3.33-3.28,36.78-29.06,44.21-35.65
		c7.43-6.59,58.41-48.49,58.41-48.49s18.26-14.84,20.4-17.51c2.14-2.68,17.98-22.05,19.57-25.82c1.59-3.77,23.02-37.74,23.02-37.74
		l1.86-14.8L7313.04,7019.42z"/>
</g>
</svg>
