<?xml version="1.0" encoding="utf-8"?>
<!-- Generator: Adobe Illustrator 23.0.2, SVG Export Plug-In . SVG Version: 6.00 Build 0)  -->
<svg version="1.1" id="Layer_1" xmlns="http://www.w3.org/2000/svg" xmlns:xlink="http://www.w3.org/1999/xlink" x="0px" y="0px"
	 viewBox="0 0 1366 768" style="enable-background:new 0 0 1366 768;" xml:space="preserve">
<style type="text/css">
	.st0{fill-rule:evenodd;clip-rule:evenodd;fill:#DEA66A;}
	.st1{fill-rule:evenodd;clip-rule:evenodd;fill:#C8935A;}
	.st2{fill-rule:evenodd;clip-rule:evenodd;fill:#FFFB66;}
	.st3{fill:#DEA66A;}
</style>
<g>
	<path class="st0" d="M462.92,325l99.23-47.56l150.71-77.72l64.84-12.45l75.6-41.68l37.84,32.89l29.51,17.78l-30.34,48.99
		l-28.07,53.1c0,0-54.67,42.69-64.02,49.64c-9.37,6.94-181.85,141.48-181.85,141.48l-50.39,74.38l-84.37,68.03
		c0,0,0.92,1.56-15.34-14.84c-4.89-33.29-14.08-87.78-14.34-94.25c-0.42-10.46-3.74-85.35-2.86-105.95
		C449.92,396.26,462.92,325,462.92,325z"/>
	<path class="st1" d="M886.87,177.27l-31.24,44.11l-36.17,61.17l-52.28,44.96l-61.14,51.62l-57.64,51.48l-54.42,44.33l-15.79,26.64
		l-41.01,45.91l-38.26,44.38l-26.74,16.53l-8.1,8.04l16.12,16.22c0,0,49.75-35.7,53.19-40.07c3.43-4.38,79.61-77.52,79.41-86.79
		c-0.2-9.27,17.92-26.01,17.92-26.01s47.46-24.09,52.23-28.8c4.77-4.71,52.64-41.59,63.28-51.02c10.63-9.43,83.6-69.4,83.6-69.4
		s26.13-21.24,29.2-25.06c3.05-3.84,25.73-31.56,28.01-36.95c2.28-5.4,32.95-54.02,32.95-54.02l2.65-21.18L886.87,177.27z"/>
	<path class="st2" d="M380.12,375.94l74.93-92.09l71.98-31.23l50.55-55.37l95.61-10.42l80.99-70.05l43.65,20.35l53.79-12.74
		L887.57,94l46.1,21.11l51.42,16.06l-42.41,29.73l5.21,35.19l51.71,34.95l-11.03,31.47l-52.08-13.58l-10.35-40.82l-38.67,10.75
		l-27.51,23.63l8.56,37.57l-3.88,44.44c0,0-26.85-12.62-28.95-15.76s-28.02,0.64-28.02,0.64l-23.7,34.22l5.87,32.72l7.71,50.75
		l-85.07,40.56l-86.05,9.37l-75.08,32.95l-30.77,50.81c0,0,17.9,29.76,24.35,33.12c6.43,3.35,57.02,29.88,57.02,29.88l-3.03,31.27
		l-63.78,20.37c0,0-8.79-26.75-9.22-35.11c-0.43-8.36-11.01-38.36-11.01-38.36l-21.84-17.56l-21.93,37.46l-21.91,37.46l-39.37-1.55
		l-9.53-68.77l-33.93-46.86l13.71-26.61l21.02-39.09c0,0-18.52-8.3-21.61-13.47c-3.09-5.18-4.37-48.36-4.37-48.36l12.39-21.64
		L380.12,375.94z"/>
	<path class="st3" d="M420.85,274.71l99.23-47.56l150.71-77.72l64.84-12.45l75.6-41.68l37.84,32.89l29.51,17.78l-30.34,48.99
		l-28.07,53.1c0,0-54.67,42.69-64.02,49.64c-9.36,6.94-181.85,141.49-181.85,141.49l-50.39,74.38l-84.37,68.03
		c0,0,0.92,1.56-15.34-14.84c-4.89-33.29-14.08-87.78-14.34-94.25c-0.42-10.46-3.74-85.35-2.86-105.95
		C407.86,345.98,420.85,274.71,420.85,274.71z"/>
	<path class="st1" d="M844.8,126.99l-31.23,44.11l-36.17,61.17l-52.27,44.96l-61.14,51.62l-57.64,51.48l-54.42,44.33l-15.79,26.64
		l-41.01,45.91l-38.26,44.38l-26.74,16.52l-8.1,8.04l16.12,16.22c0,0,49.75-35.7,53.19-40.07c3.43-4.38,79.61-77.52,79.41-86.79
		c-0.21-9.27,17.92-26.01,17.92-26.01s47.46-24.09,52.23-28.8c4.77-4.69,52.64-41.59,63.28-51.02c10.63-9.43,83.6-69.4,83.6-69.4
		s26.13-21.24,29.2-25.06c3.06-3.84,25.73-31.56,28.01-36.95c2.28-5.4,32.95-54.02,32.95-54.02l2.66-21.18L844.8,126.99z"/>
</g>
</svg>
