<?xml version="1.0" encoding="utf-8"?>
<!-- Generator: Adobe Illustrator 23.0.2, SVG Export Plug-In . SVG Version: 6.00 Build 0)  -->
<svg version="1.1" id="Layer_1" xmlns="http://www.w3.org/2000/svg" xmlns:xlink="http://www.w3.org/1999/xlink" x="0px" y="0px"
	 viewBox="0 0 1366 768" style="enable-background:new 0 0 1366 768;" xml:space="preserve">
<style type="text/css">
	.Graphic_x0020_Style{fill-rule:evenodd;clip-rule:evenodd;fill:#DEA66A;}
	.st0{fill-rule:evenodd;clip-rule:evenodd;fill:#DEA66A;}
	.st1{fill-rule:evenodd;clip-rule:evenodd;fill:#C8935A;}
	.st2{fill-rule:evenodd;clip-rule:evenodd;fill:#FFFB66;}
</style>
<g>
	<path class="st0" d="M673.35,357.65l81.82,23.2l127.07,32.04l43.93,25.94l65.11,14.51l5.11,38.42l8.01,25.39l-42.63,12.87
		l-43.42,16.42c0,0-53.51-3.22-62.49-3.98c-8.98-0.76-177.73-11.01-177.73-11.01l-67.23,17.33l-83.67-3.73c0,0-0.27,1.38-1.31-16.45
		c14.19-21.79,36.73-58.06,39.89-61.94c5.11-6.27,41.48-51.36,52.52-62.86C629.38,392.3,673.35,357.65,673.35,357.65z"/>
	<path class="st1" d="M994.54,488.85l-40.66,9.58l-52.24,16.94l-53.28-0.69l-61.83-1.35l-59.73,0.36l-54.2-2.13l-22.76,7.36
		l-47.23,5.63l-44.86,6.16l-23.94-4.09l-8.81,0.52l1.04,17.63c0,0,47.09,4.75,51.3,3.97s85.76-4.2,90.38-9.69
		c4.62-5.48,23.68-5.91,23.68-5.91s39.82,10.31,44.99,10.02c5.17-0.29,51.77,2.82,62.75,2.8c10.98-0.03,83.93,2.54,83.93,2.54
		s26,1.06,29.73,0.41c3.73-0.65,31.05-5.13,35.13-7.09c4.08-1.96,46.71-14.45,46.71-14.45l12.37-10.91L994.54,488.85z"/>
	<path class="st2" d="M599.32,344.82l90.5-15.04l57.68,18.72l57.61-6.23l60.73,42.86l82.74,0.84l14.89,34.11l37.68,20.13l36.37,0.77
		l15.92,35.81l21.59,35.61l-39.77-4.46l-14.98,23.06l12.09,46.69l-22.48,12.59l-23.24-34.51l14.88-28.95l-27.9-13.55l-28.03-0.38
		l-14.26,26.15l-24.97,23.77c0,0-9.09-21.05-8.72-23.94c0.37-2.89-16.57-13.96-16.57-13.96l-31.23,7.71l-13.33,21.96l-21.48,33.34
		l-70.04-20l-54.66-38.57l-60.35-19.31l-43.81,13.7c0,0-4.84,26.4-2.83,31.63c2.01,5.23,17.76,46.48,17.76,46.48l-17.75,16.58
		l-47.37-20.82c0,0,8.58-19.99,12.61-25.05c4.03-5.07,13.23-27.85,13.23-27.85l-3.68-21.35l-31.86,10.5l-31.86,10.5l-22.02-21.04
		l29.64-44.72l4.29-44.51l21.55-8.4l32.17-11.9c0,0-6.49-14.28-5.64-18.85c0.85-4.58,22.2-30.25,22.2-30.25l18.25-6.2L599.32,344.82
		z"/>
	<path class="st0" d="M674.69,307l81.82,23.2l127.07,32.04l43.93,25.94l65.11,14.51l5.11,38.42l8.01,25.39l-42.63,12.87
		l-43.42,16.42c0,0-53.51-3.22-62.49-3.98c-8.98-0.76-177.73-11.01-177.73-11.01l-67.23,17.33l-83.67-3.73c0,0-0.27,1.38-1.31-16.45
		c14.19-21.79,36.73-58.06,39.89-61.94c5.11-6.27,41.48-51.36,52.52-62.86C630.72,341.65,674.69,307,674.69,307z"/>
	<path class="st1" d="M995.88,438.2l-40.66,9.58l-52.24,16.94l-53.28-0.69l-61.83-1.35l-59.73,0.36l-54.2-2.13l-22.76,7.36
		l-47.23,5.63l-44.86,6.16l-23.94-4.09l-8.81,0.52l1.04,17.63c0,0,47.09,4.75,51.3,3.97c4.22-0.78,85.76-4.2,90.38-9.69
		c4.62-5.48,23.68-5.91,23.68-5.91s39.82,10.31,44.99,10.02c5.17-0.29,51.77,2.82,62.75,2.8c10.98-0.03,83.93,2.54,83.93,2.54
		s26,1.06,29.73,0.41c3.73-0.65,31.05-5.13,35.13-7.09c4.08-1.96,46.71-14.45,46.71-14.45l12.37-10.91L995.88,438.2z"/>
</g>
<g>
	<path class="st0" d="M365.73,329.37l76.69-36.75l116.47-60.06l50.1-9.62l58.42-32.21l29.25,25.42l22.81,13.74l-23.45,37.86
		l-21.69,41.04c0,0-42.25,33-49.48,38.36c-7.24,5.37-140.54,109.34-140.54,109.34l-38.94,57.48l-65.2,52.57
		c0,0,0.7,1.21-11.86-11.47c-3.78-25.73-10.88-67.84-11.08-72.84c-0.32-8.08-2.89-65.95-2.21-81.88
		C355.69,384.44,365.73,329.37,365.73,329.37z"/>
	<path class="st1" d="M693.36,215.21l-24.14,34.09l-27.95,47.27l-40.4,34.74l-47.25,39.9L509.07,411l-42.05,34.26l-12.2,20.58
		l-31.69,35.48l-29.56,34.3l-20.66,12.77l-6.26,6.22l12.45,12.53c0,0,38.45-27.59,41.1-30.97c2.65-3.38,61.52-59.9,61.36-67.07
		c-0.16-7.17,13.85-20.1,13.85-20.1s36.68-18.62,40.36-22.25c3.68-3.63,40.68-32.14,48.9-39.43c8.22-7.29,64.61-53.63,64.61-53.63
		s20.2-16.41,22.56-19.37c2.37-2.96,19.89-24.39,21.65-28.56c1.76-4.17,25.46-41.74,25.46-41.74l2.06-16.37L693.36,215.21z"/>
	<path class="st2" d="M301.74,368.73l57.9-71.15l55.63-24.13l39.07-42.79l73.89-8.05l62.59-54.13l33.74,15.72l41.57-9.84
		l27.78-23.49l35.63,16.32l39.74,12.41l-32.77,22.97l4.03,27.2l39.96,27.01l-8.53,24.32l-40.25-10.5l-8-31.55l-29.89,8.31
		l-21.26,18.26l6.61,29.04l-3,34.34c0,0-20.75-9.76-22.38-12.18c-1.64-2.41-21.66,0.5-21.66,0.5l-18.32,26.45l4.54,25.28l5.96,39.22
		l-65.75,31.35l-66.51,7.25l-58.03,25.46l-23.78,39.27c0,0,13.84,23,18.81,25.59c4.97,2.59,44.07,23.1,44.07,23.1l-2.34,24.17
		l-49.29,15.74c0,0-6.79-20.67-7.12-27.13c-0.33-6.46-8.51-29.64-8.51-29.64l-16.88-13.57l-16.94,28.95l-16.94,28.95l-30.43-1.2
		l-7.37-53.15l-26.23-36.21l10.6-20.56l16.25-30.21c0,0-14.31-6.41-16.7-10.41s-3.37-37.37-3.37-37.37l9.58-16.72L301.74,368.73z"/>
	<path class="Graphic_x0020_Style" d="M333.22,290.51l76.69-36.75l116.47-60.06l50.1-9.62l58.42-32.21l29.25,25.42l22.81,13.74
		l-23.45,37.86l-21.69,41.04c0,0-42.25,33-49.48,38.36c-7.24,5.37-140.54,109.35-140.54,109.35l-38.94,57.48l-65.2,52.57
		c0,0,0.7,1.21-11.86-11.47c-3.78-25.73-10.88-67.84-11.08-72.84c-0.32-8.08-2.89-65.95-2.21-81.88
		C323.18,345.58,333.22,290.51,333.22,290.51z"/>
	<path class="st1" d="M660.85,176.34l-24.14,34.09l-27.95,47.27l-40.4,34.74l-47.25,39.9l-44.54,39.79l-42.05,34.26l-12.2,20.58
		l-31.69,35.48l-29.56,34.3l-20.66,12.77l-6.26,6.22l12.45,12.53c0,0,38.45-27.59,41.1-30.97c2.65-3.38,61.52-59.9,61.36-67.07
		c-0.16-7.17,13.85-20.1,13.85-20.1s36.68-18.62,40.36-22.25c3.68-3.63,40.68-32.14,48.9-39.43c8.22-7.29,64.61-53.63,64.61-53.63
		s20.2-16.41,22.56-19.37c2.37-2.96,19.89-24.39,21.65-28.56c1.76-4.17,25.46-41.74,25.46-41.74l2.06-16.37L660.85,176.34z"/>
</g>
</svg>
